<?xml version="1.0" encoding="utf-8"?>
<!-- Generator: Adobe Illustrator 26.4.1, SVG Export Plug-In . SVG Version: 6.00 Build 0)  -->
<svg version="1.1" id="Layer_1" xmlns="http://www.w3.org/2000/svg" xmlns:xlink="http://www.w3.org/1999/xlink" x="0px" y="0px"
	 viewBox="0 0 650 650" style="enable-background:new 0 0 650 650;" xml:space="preserve">
<style type="text/css">
	.st0{fill:#B22234;}
	.st1{stroke:#FFFFFF;stroke-width:50;stroke-miterlimit:10;}
	.st2{fill:#3C3B6E;}
	.st3{fill:#FFFFFF;}
</style>
<rect class="st0" width="650" height="650"/>
<path class="st1" d="M0,75h650 M650,175H0 M0,275h650 M650,375H0 M0,475h650 M650,575H0"/>
<rect class="st2" width="494" height="350"/>
<g>
	<g id="s18">
		<g id="s9">
			<g id="s5">
				<g id="s4">
					<path id="s" class="st3" d="M41.2,15l11.8,36.2L22.1,28.8h38L29.4,51.2L41.2,15z"/>
					<g>
						<path id="s_00000054231093738564086300000009154989262844973210_" class="st3" d="M41.2,85l11.8,36.2L22.1,98.8h38l-30.8,22.4
							L41.2,85z"/>
					</g>
					<g>
						<path id="s_00000014629410561017728540000014299070510073224103_" class="st3" d="M41.2,155l11.8,36.2l-30.8-22.4h38
							l-30.8,22.4L41.2,155z"/>
					</g>
					<g>
						<path id="s_00000145042962562293727580000017399605378862798489_" class="st3" d="M41.2,225l11.8,36.2l-30.8-22.4h38
							l-30.8,22.4L41.2,225z"/>
					</g>
				</g>
				<g>
					<path id="s_00000022538105636704941000000012331558923095137206_" class="st3" d="M41.2,295l11.8,36.2l-30.8-22.4h38
						l-30.8,22.4L41.2,295z"/>
				</g>
			</g>
			<g>
				<g id="s4_00000016771470137767168610000010077020411973334197_">
					<path id="s_00000170974248328545058470000012014580004136522390_" class="st3" d="M82.3,50l11.8,36.2L63.3,63.8h38L70.6,86.2
						L82.3,50z"/>
					<g>
						<path id="s_00000178185069210940701770000015122678599498770360_" class="st3" d="M82.3,120l11.8,36.2l-30.8-22.4h38
							l-30.8,22.4L82.3,120z"/>
					</g>
					<g>
						<path id="s_00000111172021003335994170000005961735247726689925_" class="st3" d="M82.3,190l11.8,36.2l-30.8-22.4h38
							l-30.8,22.4L82.3,190z"/>
					</g>
					<g>
						<path id="s_00000056393466485785279260000012914130142092082067_" class="st3" d="M82.3,260l11.8,36.2l-30.8-22.4h38
							l-30.8,22.4L82.3,260z"/>
					</g>
				</g>
			</g>
		</g>
		<g>
			<g id="s9_00000038409465083673445290000000554932215698931344_">
				<g id="s5_00000121960360445653222270000015992867713522046100_">
					<g id="s4_00000011709416723710400950000004341775850242731905_">
						<path id="s_00000181785390974870154430000007659581798211504313_" class="st3" d="M123.5,15l11.8,36.2l-30.8-22.4h38
							l-30.8,22.4L123.5,15z"/>
						<g>
							<path id="s_00000059288810179643672190000007221713238842202000_" class="st3" d="M123.5,85l11.8,36.2l-30.8-22.4h38
								l-30.8,22.4L123.5,85z"/>
						</g>
						<g>
							<path id="s_00000003814158996028517340000013535091695012776603_" class="st3" d="M123.5,155l11.8,36.2l-30.8-22.4h38
								l-30.8,22.4L123.5,155z"/>
						</g>
						<g>
							<path id="s_00000029014066665821584440000013463465963017659327_" class="st3" d="M123.5,225l11.8,36.2l-30.8-22.4h38
								l-30.8,22.4L123.5,225z"/>
						</g>
					</g>
					<g>
						<path id="s_00000078764370053931141500000005559170678001360017_" class="st3" d="M123.5,295l11.8,36.2l-30.8-22.4h38
							l-30.8,22.4L123.5,295z"/>
					</g>
				</g>
				<g>
					<g id="s4_00000044160185225897023870000001727919120014287751_">
						<path id="s_00000007424785180411385980000017848648412072138398_" class="st3" d="M164.7,50l11.8,36.2l-30.8-22.4h38
							l-30.8,22.4L164.7,50z"/>
						<g>
							<path id="s_00000086688201709836849810000011888595967973524158_" class="st3" d="M164.7,120l11.8,36.2l-30.8-22.4h38
								l-30.8,22.4L164.7,120z"/>
						</g>
						<g>
							<path id="s_00000062893788795879828830000006046382301826602685_" class="st3" d="M164.7,190l11.8,36.2l-30.8-22.4h38
								l-30.8,22.4L164.7,190z"/>
						</g>
						<g>
							<path id="s_00000098186627752396855560000017630706472164206753_" class="st3" d="M164.7,260l11.8,36.2l-30.8-22.4h38
								l-30.8,22.4L164.7,260z"/>
						</g>
					</g>
				</g>
			</g>
		</g>
	</g>
	<g>
		<g id="s18_00000166660209524337137950000018125208060063100038_">
			<g id="s9_00000141425218143031899100000003521668054577321646_">
				<g id="s5_00000042011619684199193540000001379218824502148232_">
					<g id="s4_00000175323229519171518390000006642554548571840421_">
						<path id="s_00000122718405072833874110000007838343716834252678_" class="st3" d="M205.8,15l11.8,36.2l-30.8-22.4h38
							l-30.8,22.4L205.8,15z"/>
						<g>
							<path id="s_00000108998208870379538940000012782563071208937112_" class="st3" d="M205.8,85l11.8,36.2l-30.8-22.4h38
								l-30.8,22.4L205.8,85z"/>
						</g>
						<g>
							<path id="s_00000071555284487270478880000012974419488811471764_" class="st3" d="M205.8,155l11.8,36.2l-30.8-22.4h38
								l-30.8,22.4L205.8,155z"/>
						</g>
						<g>
							<path id="s_00000025403575214238528910000000656046665208548763_" class="st3" d="M205.8,225l11.8,36.2l-30.8-22.4h38
								l-30.8,22.4L205.8,225z"/>
						</g>
					</g>
					<g>
						<path id="s_00000098223041971079188900000000515011598105873841_" class="st3" d="M205.8,295l11.8,36.2l-30.8-22.4h38
							l-30.8,22.4L205.8,295z"/>
					</g>
				</g>
				<g>
					<g id="s4_00000160151804196322275810000015871583677837830037_">
						<path id="s_00000125572948582828687140000002252396762253373355_" class="st3" d="M247,50l11.8,36.2L228,63.8h38l-30.8,22.4
							L247,50z"/>
						<g>
							<path id="s_00000158018515657338209890000002208196193352823179_" class="st3" d="M247,120l11.8,36.2L228,133.8h38
								l-30.8,22.4L247,120z"/>
						</g>
						<g>
							<path id="s_00000054958608544974755010000002467725098883814544_" class="st3" d="M247,190l11.8,36.2L228,203.8h38
								l-30.8,22.4L247,190z"/>
						</g>
						<g>
							<path id="s_00000101083295169020216170000016248741284874847616_" class="st3" d="M247,260l11.8,36.2L228,273.8h38
								l-30.8,22.4L247,260z"/>
						</g>
					</g>
				</g>
			</g>
			<g>
				<g id="s9_00000135660193995764867370000013251504828080643493_">
					<g id="s5_00000107560138355079675540000002655822759223824526_">
						<g id="s4_00000171678941242948176310000010516707414555043975_">
							<path id="s_00000088114522517992518280000003590189264424386178_" class="st3" d="M288.2,15l11.8,36.2l-30.8-22.4h38
								l-30.8,22.4L288.2,15z"/>
							<g>
								<path id="s_00000039851146120016050430000013621750761733862806_" class="st3" d="M288.2,85l11.8,36.2l-30.8-22.4h38
									l-30.8,22.4L288.2,85z"/>
							</g>
							<g>
								<path id="s_00000132048729847222563470000015535666425810668930_" class="st3" d="M288.2,155l11.8,36.2l-30.8-22.4h38
									l-30.8,22.4L288.2,155z"/>
							</g>
							<g>
								<path id="s_00000121987732275816954660000002977649606670469556_" class="st3" d="M288.2,225l11.8,36.2l-30.8-22.4h38
									l-30.8,22.4L288.2,225z"/>
							</g>
						</g>
						<g>
							<path id="s_00000032626039573620258670000002483814111539315841_" class="st3" d="M288.2,295l11.8,36.2l-30.8-22.4h38
								l-30.8,22.4L288.2,295z"/>
						</g>
					</g>
					<g>
						<g id="s4_00000121963774816629504680000010668019115265225652_">
							<path id="s_00000037666857780443471230000006694362174193252521_" class="st3" d="M329.3,50l11.8,36.2l-30.8-22.4h38
								l-30.8,22.4L329.3,50z"/>
							<g>
								<path id="s_00000122697460101089744060000003533727130370446979_" class="st3" d="M329.3,120l11.8,36.2l-30.8-22.4h38
									l-30.8,22.4L329.3,120z"/>
							</g>
							<g>
								<path id="s_00000114787668221286662170000015941596512553575329_" class="st3" d="M329.3,190l11.8,36.2l-30.8-22.4h38
									l-30.8,22.4L329.3,190z"/>
							</g>
							<g>
								<path id="s_00000019645224587469855960000002394844172391550382_" class="st3" d="M329.3,260l11.8,36.2l-30.8-22.4h38
									l-30.8,22.4L329.3,260z"/>
							</g>
						</g>
					</g>
				</g>
			</g>
		</g>
	</g>
	<g>
		<g id="s9_00000067236299663833998180000012517047745071241658_">
			<g id="s5_00000091707474858912313310000013403905485756527525_">
				<g id="s4_00000072263636264373738000000007804833956078020519_">
					<path id="s_00000101797897206766024050000007614673874062226619_" class="st3" d="M370.5,15l11.8,36.2l-30.8-22.4h38
						l-30.8,22.4L370.5,15z"/>
					<g>
						<path id="s_00000053517470606862687710000018050017534857651854_" class="st3" d="M370.5,85l11.8,36.2l-30.8-22.4h38
							l-30.8,22.4L370.5,85z"/>
					</g>
					<g>
						<path id="s_00000020394951668997254250000018181022114394748065_" class="st3" d="M370.5,155l11.8,36.2l-30.8-22.4h38
							l-30.8,22.4L370.5,155z"/>
					</g>
					<g>
						<path id="s_00000140695328391900470820000000728122850909190023_" class="st3" d="M370.5,225l11.8,36.2l-30.8-22.4h38
							l-30.8,22.4L370.5,225z"/>
					</g>
				</g>
				<g>
					<path id="s_00000164495265667427959930000008390635622918039958_" class="st3" d="M370.5,295l11.8,36.2l-30.8-22.4h38
						l-30.8,22.4L370.5,295z"/>
				</g>
			</g>
			<g>
				<g id="s4_00000075139224678465278680000006296854095988632484_">
					<path id="s_00000047035773936095899910000008724974408123142535_" class="st3" d="M411.7,50l11.8,36.2l-30.8-22.4h38
						l-30.8,22.4L411.7,50z"/>
					<g>
						<path id="s_00000097494910848936349450000018105488574859045769_" class="st3" d="M411.7,120l11.8,36.2l-30.8-22.4h38
							l-30.8,22.4L411.7,120z"/>
					</g>
					<g>
						<path id="s_00000116193848254456200850000003765898438007578775_" class="st3" d="M411.7,190l11.8,36.2l-30.8-22.4h38
							l-30.8,22.4L411.7,190z"/>
					</g>
					<g>
						<path id="s_00000168817535959157395870000009009328945904397703_" class="st3" d="M411.7,260l11.8,36.2l-30.8-22.4h38
							l-30.8,22.4L411.7,260z"/>
					</g>
				</g>
			</g>
		</g>
	</g>
	<g>
		<g id="s5_00000023262789068774081060000017645668637673130685_">
			<g id="s4_00000039851270401879364580000002654570082235859106_">
				<path id="s_00000182530435407916738900000002354526266853706386_" class="st3" d="M452.8,15l11.8,36.2l-30.8-22.4h38l-30.8,22.4
					L452.8,15z"/>
				<g>
					<path id="s_00000059998575133588408660000002956707998949616796_" class="st3" d="M452.8,85l11.8,36.2l-30.8-22.4h38
						l-30.8,22.4L452.8,85z"/>
				</g>
				<g>
					<path id="s_00000104708030746017845280000001659130183244634789_" class="st3" d="M452.8,155l11.8,36.2l-30.8-22.4h38
						l-30.8,22.4L452.8,155z"/>
				</g>
				<g>
					<path id="s_00000113319222095982215170000009508176011107348894_" class="st3" d="M452.8,225l11.8,36.2l-30.8-22.4h38
						l-30.8,22.4L452.8,225z"/>
				</g>
			</g>
			<g>
				<path id="s_00000181071690547609960020000011735432899195556275_" class="st3" d="M452.8,295l11.8,36.2l-30.8-22.4h38
					l-30.8,22.4L452.8,295z"/>
			</g>
		</g>
	</g>
</g>
</svg>
